<svg xmlns="http://www.w3.org/2000/svg" width="500" height="500" viewBox="0 0 500 500" version="1.1">
	<path d="M 61.500 179.945 C 57.643 181.524, 56.149 184.682, 48.697 207 C 44.566 219.375, 39.640 233.100, 37.750 237.500 L 34.316 245.500 27.018 246.723 C 23.005 247.395, 19.605 248.070, 19.463 248.223 C 18.867 248.862, 24.750 262.227, 25.955 262.972 C 26.949 263.587, 26.716 264.081, 25 265 C 23.706 265.693, 23.172 266.491, 23.758 266.857 C 24.385 267.249, 21.922 273.674, 17.448 283.318 C 9.979 299.418, 7.456 305.789, 8.237 306.570 C 8.476 306.810, 12.902 297.780, 18.072 286.503 C 23.241 275.226, 27.792 266, 28.184 266 C 29.080 266, 28.206 268.052, 17.116 291.961 C 12.151 302.665, 8.235 311.569, 8.415 311.748 C 8.751 312.084, 27.190 308.225, 27.469 307.760 C 27.555 307.617, 32.114 297.600, 37.600 285.500 L 47.576 263.500 57.538 261.829 C 63.017 260.911, 69.984 259.866, 73.020 259.508 L 78.541 258.857 82.904 269.678 C 88.851 284.428, 100.129 310.301, 101.083 311.380 C 101.510 311.864, 104.089 308.766, 106.814 304.496 L 111.767 296.732 107.279 286.616 C 100.719 271.832, 94.844 256.822, 95.400 256.267 C 95.665 256.001, 96.612 257.520, 97.504 259.642 C 98.395 261.764, 102.078 270.587, 105.688 279.250 C 109.297 287.913, 112.644 295, 113.125 295 C 114.531 295, 114.184 293.681, 110.859 286.388 C 103.001 269.153, 98.246 256.486, 99.362 255.765 C 99.988 255.361, 101.907 255.024, 103.628 255.015 C 105.348 255.007, 107.339 254.297, 108.052 253.437 C 109.179 252.080, 109.030 251.941, 106.925 252.380 C 100.406 253.738, 97 254.006, 97 253.162 C 97 252.651, 99.925 251.920, 103.500 251.537 C 107.075 251.154, 110 250.720, 110 250.572 C 110 250.425, 108.721 247.198, 107.157 243.402 L 104.314 236.500 97.572 236.500 L 90.830 236.500 82.602 211.500 C 78.076 197.750, 73.803 185.449, 73.106 184.165 C 72.409 182.881, 70.315 181.194, 68.452 180.415 C 64.643 178.824, 64.297 178.801, 61.500 179.945 M 226.259 180.465 C 222.374 182.180, 221.693 183.632, 215.220 204 C 212.511 212.525, 207.963 225.410, 205.114 232.634 L 199.934 245.768 192.867 246.817 C 188.981 247.394, 185.603 248.064, 185.361 248.306 C 184.684 248.983, 189.925 262.336, 191.170 263.105 C 191.856 263.529, 191.416 264.242, 190 265 C 188.444 265.833, 188.104 266.446, 188.921 266.951 C 189.767 267.474, 188.184 271.858, 183.452 282.094 C 176.934 296.195, 172.660 306.993, 173.332 307.665 C 173.517 307.850, 176.300 302.264, 179.515 295.251 C 191.771 268.520, 193.109 265.775, 193.627 266.293 C 193.920 266.586, 189.560 276.777, 183.938 288.938 C 178.317 301.100, 173.940 311.273, 174.212 311.545 C 174.484 311.817, 177.810 311.348, 181.603 310.502 C 185.396 309.657, 189.448 308.756, 190.607 308.499 C 192.253 308.136, 194.969 303.095, 202.992 285.517 C 208.645 273.133, 213.694 263, 214.212 263 C 214.730 263, 221.227 262.073, 228.650 260.941 C 236.073 259.809, 242.603 259.034, 243.161 259.220 C 243.719 259.406, 246.986 266.295, 250.420 274.529 C 259.997 297.490, 266.411 312, 266.983 311.998 C 267.267 311.997, 269.673 308.585, 272.329 304.416 L 277.158 296.835 270.657 281.667 C 261.968 261.393, 259.888 255.999, 260.765 256.007 C 261.169 256.011, 265.246 264.985, 269.825 275.950 L 278.150 295.885 277.825 304.445 C 277.646 309.153, 277.733 313.004, 278.018 313.002 C 278.302 313.001, 282.091 309.721, 286.436 305.714 L 294.337 298.428 295.299 285.464 C 295.829 278.334, 296.315 257.580, 296.381 239.344 L 296.500 206.187 314.704 224.094 C 329.775 238.918, 333.403 242, 335.780 242 C 339.276 242, 339.349 241.923, 356.326 220.257 L 369.837 203.014 370.814 207.757 C 371.351 210.366, 376.001 235.561, 381.146 263.747 C 386.290 291.934, 390.763 314.996, 391.084 314.997 C 391.406 314.999, 393.656 312.068, 396.084 308.485 C 401.140 301.026, 400.555 300.823, 406.809 312.209 L 410.494 318.918 415.997 319.709 C 425.959 321.141, 448.887 320.555, 456 318.687 C 471.761 314.547, 483.828 305.708, 489.174 294.387 C 498.436 274.771, 492.107 255.193, 472.969 244.263 C 467.696 241.251, 463.004 239.619, 432 230.015 C 417.912 225.650, 410.681 222.218, 409.591 219.377 C 407.980 215.179, 417.816 206.378, 427.455 203.394 C 434.366 201.254, 452.256 200.543, 465.417 201.885 C 471.422 202.498, 476.521 202.812, 476.749 202.584 C 476.977 202.356, 474.644 198.574, 471.565 194.180 L 465.967 186.190 455.374 185.468 C 427.187 183.547, 405.323 191.828, 396.824 207.645 C 391.666 217.243, 392.309 224.125, 399.047 231.435 C 404.183 237.007, 412.077 240.537, 435 247.514 C 457.868 254.474, 462.637 256.373, 468.642 260.912 C 475.153 265.834, 477.333 269.875, 477.267 276.900 C 477.087 296.027, 457.934 306.544, 427 304.501 C 411.811 303.498, 402.404 301.716, 402.893 299.933 C 403.555 297.522, 403.260 295.639, 396.499 259.108 C 392.897 239.643, 390.127 223.540, 390.343 223.324 C 390.559 223.107, 391.012 224.309, 391.349 225.994 C 392.212 230.309, 400.709 238.438, 407.687 241.624 C 410.884 243.083, 423.297 247.316, 435.271 251.029 C 468.542 261.346, 474.513 265.640, 473.765 278.713 C 473.472 283.845, 472.879 285.585, 470.358 288.713 C 461.648 299.519, 447.748 302.636, 416.500 300.792 C 402.117 299.942, 408.252 301.492, 425 302.938 C 455.302 305.554, 476 295.357, 476 277.811 C 476 271.330, 474.060 267.019, 469.423 263.197 C 463.686 258.468, 457.404 255.851, 436.500 249.483 C 402.379 239.087, 394.156 233.712, 392.364 220.636 C 390.370 206.094, 406.855 190.003, 428.279 185.577 C 432.944 184.614, 441.477 183.961, 450.208 183.900 C 458.921 183.840, 463.524 183.488, 462 183 C 457.477 181.551, 436.321 181.916, 428.256 183.582 C 417.587 185.786, 407.116 190.998, 400.625 197.335 C 394.294 203.516, 391.273 208.988, 390.244 216.137 C 389.520 221.167, 389.386 220.742, 386.229 203.420 C 382.714 184.137, 381.446 181.133, 376.182 179.623 C 370.474 177.986, 368.022 180.057, 352.308 199.789 C 344.164 210.016, 336.978 219.078, 336.341 219.927 C 335.361 221.232, 331.931 218.271, 314.183 200.798 C 296.647 183.534, 292.577 180.011, 289.502 179.434 C 286.652 178.900, 285.219 179.188, 283.160 180.712 C 278.049 184.493, 277.799 186.176, 279.598 204.676 C 280.912 218.201, 281.095 226.991, 280.531 249.500 C 280.144 264.900, 279.528 280.650, 279.160 284.500 L 278.492 291.500 271.714 275.637 C 267.986 266.912, 264.838 258.823, 264.718 257.661 C 264.535 255.886, 265.180 255.455, 268.770 254.955 C 271.118 254.628, 273.593 253.797, 274.270 253.109 C 275.250 252.112, 274.993 251.963, 273 252.372 C 266.329 253.741, 263 254.008, 263 253.174 C 263 252.671, 265.700 251.953, 269 251.580 C 272.300 251.206, 275 250.597, 275 250.225 C 275 249.854, 273.785 246.452, 272.299 242.665 L 269.598 235.781 263.047 236.427 L 256.496 237.072 247.721 210.685 C 241.727 192.660, 238.242 183.641, 236.723 182.223 C 233.663 179.367, 230.099 178.768, 226.259 180.465 M 192 182.647 C 157.212 190.385, 128.668 194, 102.355 194 C 92.260 194, 88 194.339, 88 195.142 C 88 195.770, 88.940 199.441, 90.089 203.299 L 92.178 210.313 113.339 209.622 C 124.978 209.242, 135.738 208.669, 137.250 208.349 C 138.799 208.021, 140 208.202, 140 208.763 C 140 209.732, 125.071 210.746, 103.250 211.259 C 97.361 211.397, 93.135 211.902, 93.316 212.446 C 93.658 213.475, 116.705 213.282, 131.364 212.127 C 137.199 211.668, 140.334 211.783, 140.539 212.465 C 140.951 213.833, 142.740 241.188, 144.927 279.568 C 145.993 298.281, 147.160 311.404, 147.862 312.568 C 148.804 314.130, 148.927 313.350, 148.507 308.500 C 148.221 305.200, 147.289 289.450, 146.435 273.500 C 145.581 257.550, 144.305 237.075, 143.599 228 C 142.403 212.644, 142.372 210.005, 143.396 211.083 C 143.950 211.667, 146.635 249.953, 148.579 285 C 149.478 301.225, 150.322 314.618, 150.454 314.763 C 150.805 315.150, 164.370 309.981, 165.255 309.122 C 166.044 308.357, 164.196 272.534, 161.371 233.840 C 160.461 221.377, 159.961 210.545, 160.259 209.768 C 160.587 208.912, 163.694 207.858, 168.150 207.090 C 180.917 204.891, 207.041 199.048, 209.148 197.921 C 212.681 196.030, 210.718 196.087, 201.988 198.129 C 188.539 201.276, 159.544 206.877, 159.084 206.418 C 158.303 205.636, 159.500 205.340, 178.500 201.618 C 203.612 196.699, 211 194.960, 211 193.967 C 211 192.956, 203.984 181.084, 203.121 180.635 C 202.779 180.457, 197.775 181.362, 192 182.647 M 60.831 182.530 C 59.335 183.342, 57.717 185.412, 57.151 187.239 C 56.594 189.033, 54.485 195.900, 52.463 202.500 C 50.441 209.100, 46.317 220.800, 43.300 228.500 C 36.108 246.851, 36.512 245.678, 37.792 244.500 C 39.377 243.041, 48.938 217.812, 54.351 200.807 C 56.924 192.726, 59.729 185.414, 60.586 184.557 C 62.666 182.476, 67.324 182.580, 69.215 184.750 C 70.053 185.713, 74.454 197.750, 78.995 211.500 C 83.535 225.250, 87.710 236.950, 88.272 237.500 C 88.961 238.174, 89.129 238.011, 88.786 237 C 88.507 236.175, 84.612 224.167, 80.131 210.316 C 73.456 189.684, 71.508 184.758, 69.357 183.066 C 66.289 180.653, 64.494 180.540, 60.831 182.530 M 225.787 183.158 C 223.901 184.898, 221.671 190.386, 217.117 204.500 C 213.745 214.950, 209.009 228.338, 206.592 234.250 C 204.175 240.162, 202.540 245, 202.957 245 C 204.084 245, 214.090 218.685, 219.498 201.500 C 222.094 193.250, 224.914 185.713, 225.764 184.750 C 227.489 182.797, 231.147 182.473, 234.033 184.018 C 235.407 184.753, 238.357 192.432, 244.663 211.682 C 249.463 226.338, 253.565 237.805, 253.778 237.165 C 254.333 235.500, 237.142 184.363, 235.596 183.080 C 232.719 180.692, 228.423 180.727, 225.787 183.158 M 355.143 224.156 C 347.797 233.472, 340.757 241.768, 339.499 242.593 C 335.204 245.407, 332.284 243.468, 314.760 226.170 C 305.553 217.082, 297.868 209.838, 297.683 210.073 C 297.497 210.308, 297.605 216.767, 297.923 224.426 C 298.509 238.575, 297.851 266.633, 296.469 286.400 C 295.962 293.650, 296.044 297.091, 296.714 296.677 C 298.306 295.693, 299.236 281, 299.892 246.500 L 300.500 214.500 316.151 229.750 C 337.777 250.822, 336.612 250.929, 356.091 226.101 C 365.507 214.099, 367.519 212.018, 368.175 213.601 C 368.608 214.645, 372.571 235.075, 376.982 259 C 384.065 297.418, 387.574 313.868, 388.465 312.821 C 388.852 312.366, 369.543 208.205, 368.972 207.665 C 368.712 207.419, 362.489 214.841, 355.143 224.156 M 226.314 230.563 C 224.087 236.578, 222.383 241.640, 222.527 241.812 C 222.969 242.336, 234.681 240.815, 235.872 240.079 C 236.647 239.600, 235.976 236.369, 233.675 229.507 L 230.362 219.625 226.314 230.563 M 61.004 230.203 C 59.187 235.317, 57.475 240.115, 57.199 240.866 C 56.791 241.976, 57.897 242.097, 63.099 241.515 C 66.619 241.120, 69.888 240.433, 70.362 239.987 C 71.178 239.219, 66.564 223.395, 65.029 221.703 C 64.632 221.265, 62.820 225.090, 61.004 230.203 M 60.326 257.887 C 54.730 258.774, 49.780 259.897, 49.326 260.383 C 48.852 260.889, 49.992 261.003, 52 260.650 C 53.925 260.311, 60.450 259.309, 66.500 258.422 C 72.550 257.535, 77.688 256.627, 77.917 256.405 C 78.749 255.596, 70.267 256.311, 60.326 257.887 M 227.500 257.599 C 216.745 259.238, 213.606 259.939, 214.230 260.563 C 214.769 261.103, 242.133 257.200, 242.853 256.481 C 243.664 255.669, 236.953 256.158, 227.500 257.599 M 194.500 263 C 194.160 263.550, 194.359 264, 194.941 264 C 195.523 264, 196 263.550, 196 263 C 196 262.450, 195.802 262, 195.559 262 C 195.316 262, 194.840 262.450, 194.500 263" stroke="none" fill="black" fill-rule="evenodd"/>
</svg>